<svg width="18" height="18" viewBox="0 0 18 18" fill="none" xmlns="http://www.w3.org/2000/svg">
<path fill-rule="evenodd" clip-rule="evenodd" d="M9.00002 17.3333C13.6024 17.3333 17.3334 13.6023 17.3334 8.99999C17.3334 4.39761 13.6024 0.666656 9.00002 0.666656C4.39764 0.666656 0.666687 4.39761 0.666687 8.99999C0.666687 13.6023 4.39764 17.3333 9.00002 17.3333ZM9.00002 15.6667C12.6819 15.6667 15.6667 12.6819 15.6667 8.99999C15.6667 5.31809 12.6819 2.33332 9.00002 2.33332C5.31812 2.33332 2.33335 5.31809 2.33335 8.99999C2.33335 12.6819 5.31812 15.6667 9.00002 15.6667ZM8.16669 4.83332H6.50002V10.6667H12.3334V8.99999H8.16669V4.83332Z" fill="#2D2D2D"/>
</svg>
